<svg viewBox="0 0 100 100" xmlns="http://www.w3.org/2000/svg">
  <defs>
    <radialGradient id="mainGradient" cx="50%" cy="30%" r="70%">
      <stop offset="0%" style="stop-color:#6366f1"/>
      <stop offset="100%" style="stop-color:#1e1b4b"/>
    </radialGradient>
    <linearGradient id="deviceGradient" x1="0%" y1="0%" x2="100%" y2="100%">
      <stop offset="0%" style="stop-color:#ffffff"/>
      <stop offset="100%" style="stop-color:#e5e7eb"/>
    </linearGradient>
  </defs>
  
  <!-- Main background with rounded square -->
  <rect x="8" y="8" width="84" height="84" rx="18" fill="url(#mainGradient)"/>
  
  <!-- Router device -->
  <rect x="20" y="45" width="60" height="20" rx="3" fill="url(#deviceGradient)" stroke="#9ca3af" stroke-width="0.5"/>
  
  <!-- Router front panel details -->
  <rect x="23" y="50" width="8" height="3" rx="1" fill="#1f2937"/>
  <rect x="33" y="50" width="8" height="3" rx="1" fill="#1f2937"/>
  
  <!-- Status lights -->
  <circle cx="25" cy="58" r="1.5" fill="#ef4444"/>
  <circle cx="30" cy="58" r="1.5" fill="#eab308"/>
  <circle cx="35" cy="58" r="1.5" fill="#22c55e"/>
  <circle cx="40" cy="58" r="1.5" fill="#3b82f6"/>
  
  <!-- WiFi signal icon -->
  <g transform="translate(50, 25)">
    <!-- Signal waves -->
    <path d="M 0 15 A 12 12 0 0 0 12 3" stroke="#ffffff" stroke-width="3" fill="none" stroke-linecap="round"/>
    <path d="M 0 15 A 8 8 0 0 0 8 7" stroke="#ffffff" stroke-width="3" fill="none" stroke-linecap="round"/>
    <path d="M 0 15 A 4 4 0 0 0 4 11" stroke="#ffffff" stroke-width="3" fill="none" stroke-linecap="round"/>
    <!-- Center dot -->
    <circle cx="0" cy="15" r="2" fill="#ffffff"/>
  </g>
  
  <!-- Antenna -->
  <rect x="47" y="35" width="2" height="12" rx="1" fill="#6b7280"/>
  <rect x="51" y="35" width="2" height="12" rx="1" fill="#6b7280"/>
  
  <!-- Connection lines -->
  <line x1="50" y1="65" x2="50" y2="75" stroke="#ffffff" stroke-width="2" opacity="0.8"/>
  <line x1="45" y1="75" x2="55" y2="75" stroke="#ffffff" stroke-width="2" opacity="0.8"/>
  <line x1="40" y1="75" x2="60" y2="75" stroke="#ffffff" stroke-width="1" opacity="0.6"/>
  

</svg>